<svg xmlns="http://www.w3.org/2000/svg" viewBox="0 0 820 460" width="820" height="460" role="img" aria-labelledby="t d">
<title id="t">GOX injector choke margin against manifold pressure</title>
<desc id="d">Choke margin p0/Pc of the GOX injector at steady burning, for eta_c* values, with the injector holes as drawn and with holes scaled to keep the design flow. uncalibrated · stand sim ec34dd4 · 2026-09-27.</desc>
<style>
  svg { --surface: #fcfcfb; --ink: #0b0b0b; --ink2: #52514e; --grid: #e6e5e1; --s1: #2a78d6; --s2: #eb6834; --s3: #1baf7a; --s4: #eda100; font-family: system-ui, sans-serif; }
  @media (prefers-color-scheme: dark) { svg { --surface: #1a1a19; --ink: #ffffff; --ink2: #c3c2b7; --grid: #34332f; --s1: #3987e5; --s2: #d95926; --s3: #199e70; --s4: #c98500; } }
  .bg { fill: var(--surface); } .grid { stroke: var(--grid); stroke-width: 1; } .axis { fill: var(--ink2); font-size: 12px; }
  .title { fill: var(--ink); font-size: 15px; font-weight: 600; } .sub, .legend, .direct, .ref { fill: var(--ink2); font-size: 12px; }
  .line { fill: none; stroke-width: 2; } .dash { stroke-dasharray: 6 4; } .dot { stroke: var(--surface); stroke-width: 2; }
  .refline { stroke: var(--ink2); stroke-width: 1; stroke-dasharray: 2 3; }
  .s1 { stroke: var(--s1); } circle.s1 { fill: var(--s1); } .s2 { stroke: var(--s2); } circle.s2 { fill: var(--s2); }
  .s3 { stroke: var(--s3); } circle.s3 { fill: var(--s3); } .s4 { stroke: var(--s4); } circle.s4 { fill: var(--s4); }
</style>
<rect class="bg" x="0" y="0" width="820" height="460"/>
<text class="title" x="64" y="20">GOX injector choke margin p₀/P_c vs manifold pressure</text>
<g transform="translate(64,36)"><line class="s1 line" x1="0" y1="0" x2="18" y2="0"/><text class="legend" x="24" y="4">η 0.92, holes as drawn</text></g><g transform="translate(262,36)"><line class="s2 line" x1="0" y1="0" x2="18" y2="0"/><text class="legend" x="24" y="4">η 0.88, holes as drawn</text></g><g transform="translate(460,36)"><line class="s3 line" x1="0" y1="0" x2="18" y2="0"/><text class="legend" x="24" y="4">η 0.97, holes as drawn</text></g><g transform="translate(658,36)"><line class="s4 line dash" x1="0" y1="0" x2="18" y2="0"/><text class="legend" x="24" y="4">η 0.92, holes scaled</text></g>
<line class="grid" x1="64" x2="630" y1="375.3076923076923" y2="375.3076923076923"/><text class="axis" x="56" y="379.3076923076923" text-anchor="end">1.5</text><line class="grid" x1="64" x2="630" y1="349.9230769230769" y2="349.9230769230769"/><text class="axis" x="56" y="353.9230769230769" text-anchor="end">1.6</text><line class="grid" x1="64" x2="630" y1="324.53846153846155" y2="324.53846153846155"/><text class="axis" x="56" y="328.53846153846155" text-anchor="end">1.7</text><line class="grid" x1="64" x2="630" y1="299.15384615384613" y2="299.15384615384613"/><text class="axis" x="56" y="303.15384615384613" text-anchor="end">1.8</text><line class="grid" x1="64" x2="630" y1="273.7692307692308" y2="273.7692307692308"/><text class="axis" x="56" y="277.7692307692308" text-anchor="end">1.9</text><line class="grid" x1="64" x2="630" y1="248.3846153846154" y2="248.3846153846154"/><text class="axis" x="56" y="252.3846153846154" text-anchor="end">2.0</text><line class="grid" x1="64" x2="630" y1="222.99999999999997" y2="222.99999999999997"/><text class="axis" x="56" y="226.99999999999997" text-anchor="end">2.1</text><line class="grid" x1="64" x2="630" y1="197.61538461538456" y2="197.61538461538456"/><text class="axis" x="56" y="201.61538461538456" text-anchor="end">2.2</text><line class="grid" x1="64" x2="630" y1="172.23076923076925" y2="172.23076923076925"/><text class="axis" x="56" y="176.23076923076925" text-anchor="end">2.3</text><line class="grid" x1="64" x2="630" y1="146.84615384615387" y2="146.84615384615387"/><text class="axis" x="56" y="150.84615384615387" text-anchor="end">2.4</text><line class="grid" x1="64" x2="630" y1="121.46153846153845" y2="121.46153846153845"/><text class="axis" x="56" y="125.46153846153845" text-anchor="end">2.5</text><line class="grid" x1="64" x2="630" y1="96.07692307692304" y2="96.07692307692304"/><text class="axis" x="56" y="100.07692307692304" text-anchor="end">2.6</text><line class="grid" x1="64" x2="630" y1="70.69230769230762" y2="70.69230769230762"/><text class="axis" x="56" y="74.69230769230762" text-anchor="end">2.7</text>
<text class="axis" x="64" y="406" text-anchor="middle">400</text><text class="axis" x="158.33333333333331" y="406" text-anchor="middle">450</text><text class="axis" x="252.66666666666666" y="406" text-anchor="middle">500</text><text class="axis" x="347" y="406" text-anchor="middle">550</text><text class="axis" x="441.3333333333333" y="406" text-anchor="middle">600</text><text class="axis" x="535.6666666666667" y="406" text-anchor="middle">650</text><text class="axis" x="630" y="406" text-anchor="middle">700</text>
<text class="axis" x="347" y="424" text-anchor="middle">manifold pressure (psia)</text>
<text class="axis" transform="translate(16,223) rotate(-90)" text-anchor="middle">p₀/P_c</text>
<line class="refline" x1="64" x2="630" y1="275.56413662808325" y2="275.56413662808325"/><text class="ref" x="624" y="372.7692307692308" text-anchor="end">dotted at 1.893: O₂ critical ratio; below it the injector is not choked</text>
<line class="refline" x1="64" x2="630" y1="197.61538461538456" y2="197.61538461538456"/><text class="ref" x="70" y="191.61538461538456">2.2: green on the schematic (brief §5.2)</text>
<path class="s1 line" d="M64.0,293.4 L139.5,293.8 L214.9,294.2 L290.4,294.5 L365.9,294.9 L441.3,295.1 L516.8,295.4 L630.0,295.8"/><circle class="s1 dot" cx="64.0" cy="293.4" r="4"><title>η 0.92, holes as drawn: manifold 400 psia → P_c 217.4 psia, GOX p₀/P_c 1.823 (NOT choked), GCH₄ 1.835</title></circle><circle class="s1 dot" cx="139.5" cy="293.8" r="4"><title>η 0.92, holes as drawn: manifold 440 psia → P_c 239.4 psia, GOX p₀/P_c 1.821 (NOT choked), GCH₄ 1.834</title></circle><circle class="s1 dot" cx="214.9" cy="294.2" r="4"><title>η 0.92, holes as drawn: manifold 480 psia → P_c 261.4 psia, GOX p₀/P_c 1.819 (NOT choked), GCH₄ 1.832</title></circle><circle class="s1 dot" cx="290.4" cy="294.5" r="4"><title>η 0.92, holes as drawn: manifold 520 psia → P_c 283.4 psia, GOX p₀/P_c 1.818 (NOT choked), GCH₄ 1.831</title></circle><circle class="s1 dot" cx="365.9" cy="294.9" r="4"><title>η 0.92, holes as drawn: manifold 560 psia → P_c 305.4 psia, GOX p₀/P_c 1.817 (NOT choked), GCH₄ 1.830</title></circle><circle class="s1 dot" cx="441.3" cy="295.1" r="4"><title>η 0.92, holes as drawn: manifold 600 psia → P_c 327.4 psia, GOX p₀/P_c 1.816 (NOT choked), GCH₄ 1.828</title></circle><circle class="s1 dot" cx="516.8" cy="295.4" r="4"><title>η 0.92, holes as drawn: manifold 640 psia → P_c 349.4 psia, GOX p₀/P_c 1.815 (NOT choked), GCH₄ 1.827</title></circle><circle class="s1 dot" cx="630.0" cy="295.8" r="4"><title>η 0.92, holes as drawn: manifold 700 psia → P_c 382.5 psia, GOX p₀/P_c 1.813 (NOT choked), GCH₄ 1.826</title></circle><text class="direct" x="638" y="299.7650957895418">η 0.92, holes as drawn</text>
<path class="s2 line" d="M64.0,272.5 L139.5,272.9 L214.9,273.3 L290.4,273.7 L365.9,274.0 L441.3,274.3 L516.8,274.6 L630.0,275.0"/><circle class="s2 dot" cx="64.0" cy="272.5" r="4"><title>η 0.88, holes as drawn: manifold 400 psia → P_c 208.0 psia, GOX p₀/P_c 1.905 (choked), GCH₄ 1.918</title></circle><circle class="s2 dot" cx="139.5" cy="272.9" r="4"><title>η 0.88, holes as drawn: manifold 440 psia → P_c 229.0 psia, GOX p₀/P_c 1.903 (choked), GCH₄ 1.917</title></circle><circle class="s2 dot" cx="214.9" cy="273.3" r="4"><title>η 0.88, holes as drawn: manifold 480 psia → P_c 250.1 psia, GOX p₀/P_c 1.902 (choked), GCH₄ 1.915</title></circle><circle class="s2 dot" cx="290.4" cy="273.7" r="4"><title>η 0.88, holes as drawn: manifold 520 psia → P_c 271.1 psia, GOX p₀/P_c 1.900 (choked), GCH₄ 1.914</title></circle><circle class="s2 dot" cx="365.9" cy="274.0" r="4"><title>η 0.88, holes as drawn: manifold 560 psia → P_c 292.2 psia, GOX p₀/P_c 1.899 (choked), GCH₄ 1.912</title></circle><circle class="s2 dot" cx="441.3" cy="274.3" r="4"><title>η 0.88, holes as drawn: manifold 600 psia → P_c 313.2 psia, GOX p₀/P_c 1.898 (choked), GCH₄ 1.911</title></circle><circle class="s2 dot" cx="516.8" cy="274.6" r="4"><title>η 0.88, holes as drawn: manifold 640 psia → P_c 334.3 psia, GOX p₀/P_c 1.897 (choked), GCH₄ 1.910</title></circle><circle class="s2 dot" cx="630.0" cy="275.0" r="4"><title>η 0.88, holes as drawn: manifold 700 psia → P_c 366.0 psia, GOX p₀/P_c 1.895 (choked), GCH₄ 1.908</title></circle><text class="direct" x="638" y="279.0117998422611">η 0.88, holes as drawn</text>
<path class="s3 line" d="M64.0,316.0 L139.5,316.3 L214.9,316.7 L290.4,317.0 L365.9,317.2 L441.3,317.5 L516.8,317.7 L630.0,318.0"/><circle class="s3 dot" cx="64.0" cy="316.0" r="4"><title>η 0.97, holes as drawn: manifold 400 psia → P_c 228.6 psia, GOX p₀/P_c 1.734 (NOT choked), GCH₄ 1.746</title></circle><circle class="s3 dot" cx="139.5" cy="316.3" r="4"><title>η 0.97, holes as drawn: manifold 440 psia → P_c 251.7 psia, GOX p₀/P_c 1.732 (NOT choked), GCH₄ 1.744</title></circle><circle class="s3 dot" cx="214.9" cy="316.7" r="4"><title>η 0.97, holes as drawn: manifold 480 psia → P_c 274.8 psia, GOX p₀/P_c 1.731 (NOT choked), GCH₄ 1.743</title></circle><circle class="s3 dot" cx="290.4" cy="317.0" r="4"><title>η 0.97, holes as drawn: manifold 520 psia → P_c 297.9 psia, GOX p₀/P_c 1.730 (NOT choked), GCH₄ 1.742</title></circle><circle class="s3 dot" cx="365.9" cy="317.2" r="4"><title>η 0.97, holes as drawn: manifold 560 psia → P_c 321.0 psia, GOX p₀/P_c 1.729 (NOT choked), GCH₄ 1.741</title></circle><circle class="s3 dot" cx="441.3" cy="317.5" r="4"><title>η 0.97, holes as drawn: manifold 600 psia → P_c 344.1 psia, GOX p₀/P_c 1.728 (NOT choked), GCH₄ 1.740</title></circle><circle class="s3 dot" cx="516.8" cy="317.7" r="4"><title>η 0.97, holes as drawn: manifold 640 psia → P_c 367.2 psia, GOX p₀/P_c 1.727 (NOT choked), GCH₄ 1.739</title></circle><circle class="s3 dot" cx="630.0" cy="318.0" r="4"><title>η 0.97, holes as drawn: manifold 700 psia → P_c 402.0 psia, GOX p₀/P_c 1.726 (NOT choked), GCH₄ 1.738</title></circle><text class="direct" x="638" y="322.0352397810449">η 0.97, holes as drawn</text>
<path class="s4 line dash" d="M64.0,361.3 L139.5,329.6 L214.9,294.2 L290.4,255.9 L365.9,217.2 L441.3,178.6 L516.8,140.0 L630.0,82.1"/><circle class="s4 dot" cx="64.0" cy="361.3" r="4"><title>η 0.92, holes scaled: manifold 400 psia → P_c 254.0 psia, GOX p₀/P_c 1.555 (NOT choked), GCH₄ 1.570</title></circle><circle class="s4 dot" cx="139.5" cy="329.6" r="4"><title>η 0.92, holes scaled: manifold 440 psia → P_c 259.1 psia, GOX p₀/P_c 1.680 (NOT choked), GCH₄ 1.694</title></circle><circle class="s4 dot" cx="214.9" cy="294.2" r="4"><title>η 0.92, holes scaled: manifold 480 psia → P_c 261.4 psia, GOX p₀/P_c 1.819 (NOT choked), GCH₄ 1.832</title></circle><circle class="s4 dot" cx="290.4" cy="255.9" r="4"><title>η 0.92, holes scaled: manifold 520 psia → P_c 261.8 psia, GOX p₀/P_c 1.971 (choked), GCH₄ 1.982</title></circle><circle class="s4 dot" cx="365.9" cy="217.2" r="4"><title>η 0.92, holes scaled: manifold 560 psia → P_c 262.0 psia, GOX p₀/P_c 2.123 (choked), GCH₄ 2.134</title></circle><circle class="s4 dot" cx="441.3" cy="178.6" r="4"><title>η 0.92, holes scaled: manifold 600 psia → P_c 262.2 psia, GOX p₀/P_c 2.275 (choked), GCH₄ 2.285</title></circle><circle class="s4 dot" cx="516.8" cy="140.0" r="4"><title>η 0.92, holes scaled: manifold 640 psia → P_c 262.3 psia, GOX p₀/P_c 2.427 (choked), GCH₄ 2.436</title></circle><circle class="s4 dot" cx="630.0" cy="82.1" r="4"><title>η 0.92, holes scaled: manifold 700 psia → P_c 262.5 psia, GOX p₀/P_c 2.655 (choked), GCH₄ 2.664</title></circle><text class="direct" x="638" y="86.08739097293477">η 0.92, holes scaled</text>
<text class="sub" x="64" y="438">uncalibrated · stand sim ec34dd4 · 2026-09-27. Steady burn on the chamber-fill network, CEA c*.</text>
<text class="sub" x="64" y="454">Holes as drawn: P_c rises with manifold pressure and the margin stays put. The S-3 target and fix are Dalton's.</text>
</svg>
